<?xml version="1.0" ?><!DOCTYPE svg  PUBLIC '-//W3C//DTD SVG 1.1//EN'  'http://www.w3.org/Graphics/SVG/1.1/DTD/svg11.dtd'><svg height="96" version="1.1" viewBox="0 0 96 96" width="96" xmlns="http://www.w3.org/2000/svg" xmlns:xlink="http://www.w3.org/1999/xlink"><path d="M27.276 54.004h-24c-1.104 0-2-0.9-2-2v-40c0-1.1 0.896-2 2-2h24c1.104 0 2 0.9 2 2v40c0 1.1-0.896 2-2 2z" fill="#000000"/><path d="M29.276 14.004c-1.104 0-2 0.9-2 2 0 0.376 0.132 0.708 0.312 1.008-0.076 0.144-0.172 0.304-0.312 0.492-1 1.336-1.168 2.668-1 3.668s-0.276 2.668-0.056 3.668-0.52 2.164-0.064 3c0.456 0.832 1.452 2 1.12 2.832-0.068 0.172-0.104 0.216-0.124 0.232 0.044 0.068 0.124 0.444 0.124 2.1 0 3.336 0.332 3.5 0 5s0.332 1.168 0 2.668 0 3.832 0 3.832-0.332 0.168 0 1.168c0.236 0.704-0.088 1.64 0.384 2.084-0.012 0.084-0.052 0.164-0.052 0.252 0 0.984 0.728 1.768 1.668 1.932v-35.936z" fill="#000000"/><path d="M94.392 50.004h-21.112c-1.104 0-2-0.9-2-2s0.896-2 2-2h20.412c0.352-0.832 0.624-1.728 0.724-2.712 0.184-1.896-0.196-3.696-0.956-5.288h-20.176c-1.104 0-2-0.9-2-2s0.896-2 2-2h18.752c0.38-2.072 0.232-4.368-0.54-6.376-0.22-0.584-0.492-1.116-0.796-1.624h-17.416c-1.104 0-2-0.9-2-2s0.896-2 2-2h14.216c0.008-2.468-0.804-5.084-2.388-7.172-2.36-3.108-6.084-4.828-10.496-4.828h-32.752c-2.224 0-4.18 0.752-5.66 2.184-0.832 0.792-1.84 1.324-2.924 1.596v37.116c0.908 0.444 1.728 1.036 2.328 1.756 0.376 0.448 0.796 0.86 1.248 1.216 6.012 4.74 9.884 9.752 11.836 15.336 0.292 0.828 0.588 1.68 0.588 2.38v9.524c0 0.368 0.1 0.728 0.292 1.040 1.5 2.46 4.084 3.844 6.776 3.844 1.072 0 2.156-0.224 3.212-0.672 4.92-2.132 8.8-9.368 5.58-23.32h19.072c3.148 0 10.512 0 10.512-8.992-0.004-0.656-0.036-1.816-0.332-3.008z" fill="#000000"/></svg>